<?xml version="1.0" standalone="no"?>
<!DOCTYPE svg PUBLIC "-//W3C//DTD SVG 20010904//EN"
        "http://www.w3.org/TR/2001/REC-SVG-20010904/DTD/svg10.dtd">
<svg version="1.0" xmlns="http://www.w3.org/2000/svg"
     width="80.000000pt" height="80.000000pt" viewBox="0 0 80.000000 80.000000"
     preserveAspectRatio="xMidYMid meet">
    <metadata>
        Created by potrace 1.16, written by Peter Selinger 2001-2019
    </metadata>
    <g transform="translate(0.000000,80.000000) scale(0.016032,-0.015123)"
       fill="#000000" stroke="none">
        <path class="rotate-anim" d="M1500 3663 c-26 -10 -71 -57 -90 -94 -10 -20 -24 -75 -31 -123 -14
-102 -3 -233 36 -436 14 -69 25 -140 25 -158 0 -18 -20 -80 -44 -137 -163
-381 -171 -563 -34 -799 71 -123 119 -188 200 -273 43 -45 78 -88 78 -96 0 -8
-12 -41 -27 -73 -14 -32 -45 -110 -67 -173 l-41 -115 -75 -50 c-87 -59 -143
-133 -159 -207 -25 -113 -6 -250 48 -358 17 -32 35 -79 41 -104 18 -67 63
-115 150 -156 69 -33 82 -36 165 -36 76 0 100 5 152 28 34 15 72 27 84 27 12
0 51 -15 88 -32 59 -30 75 -33 152 -33 86 0 86 0 141 42 l55 43 138 0 138 0
41 -37 c22 -21 40 -40 39 -43 -2 -7 62 -14 131 -13 48 0 72 7 136 40 l77 41
74 -29 c41 -16 81 -28 90 -26 9 3 40 1 70 -4 29 -5 56 -5 59 -1 3 4 23 8 45 9
46 3 125 41 173 82 26 22 36 43 48 91 8 35 25 85 39 112 40 80 55 145 55 244
0 160 -50 256 -172 329 -37 21 -72 50 -78 64 -17 36 -100 268 -100 278 0 5 13
24 29 43 15 19 69 96 120 170 50 74 111 162 135 195 23 33 55 92 71 130 69
173 33 430 -101 714 -24 51 -44 107 -44 122 0 16 11 75 24 132 39 167 50 246
50 362 0 143 -19 209 -78 270 l-43 45 -74 0 c-124 0 -208 -39 -431 -200 l-48
-34 -107 37 c-140 47 -213 59 -348 59 -131 0 -203 -12 -347 -58 -124 -40 -110
-43 -238 51 -47 35 -119 81 -160 102 -68 34 -83 38 -160 40 -47 1 -92 0 -100
-4z m195 -64 c64 -24 182 -100 267 -172 37 -31 71 -57 76 -57 5 0 36 12 68 26
92 41 238 74 354 81 154 8 299 -21 486 -98 30 -12 33 -10 99 46 227 192 422
251 491 148 62 -92 55 -333 -18 -646 l-20 -88 52 -117 c88 -197 132 -342 137
-453 10 -184 -38 -301 -181 -445 -102 -103 -197 -164 -341 -219 -375 -144
-991 -140 -1344 9 -138 58 -219 112 -317 211 -142 142 -191 263 -182 446 6
109 54 267 139 456 l51 113 -21 87 c-39 164 -54 276 -55 418 -1 191 24 256
106 275 42 9 89 2 153 -21z m271 -2405 c119 -85 380 -182 514 -191 139 -10
241 26 492 174 104 61 154 98 231 172 53 52 99 92 101 90 8 -8 75 -196 86
-241 14 -54 18 -58 84 -83 56 -20 114 -74 140 -128 44 -94 42 -244 -4 -352
l-20 -47 -31 27 c-17 14 -34 24 -36 21 -2 -2 5 -22 16 -45 12 -23 21 -59 21
-85 0 -37 -6 -51 -36 -83 l-36 -38 -23 46 c-13 25 -31 51 -40 59 -15 12 -15
11 -8 -16 9 -34 7 -105 -4 -115 -5 -4 -22 -10 -40 -14 -28 -6 -34 -3 -46 22
-8 15 -25 37 -37 48 l-22 20 7 -49 8 -49 -43 7 c-67 11 -140 45 -140 67 0 10
4 20 9 24 15 9 108 253 130 341 28 110 49 241 57 358 10 154 -12 124 -63 -85
-72 -293 -122 -461 -160 -537 -34 -69 -114 -172 -134 -172 -5 0 -9 15 -9 34 0
44 -16 55 -25 18 -12 -51 -33 -72 -70 -72 -31 0 -35 3 -35 28 0 15 -3 38 -7
51 -6 22 -8 20 -27 -20 -24 -50 -33 -52 -59 -17 -29 38 -36 95 -37 283 -2 239
-17 268 -45 89 -9 -55 -18 -106 -20 -114 -6 -17 -107 -26 -191 -15 l-51 6 -17
107 c-33 198 -43 176 -49 -103 -3 -143 -8 -199 -20 -226 -32 -73 -64 -73 -88
-1 -10 32 -13 34 -20 17 -4 -11 -8 -35 -8 -52 -1 -30 -4 -33 -31 -33 -36 0
-68 30 -77 70 -8 41 -23 38 -23 -5 0 -45 -14 -44 -56 1 -78 86 -122 201 -209
546 -31 122 -61 240 -66 261 -5 20 -15 37 -21 37 -16 0 -4 -175 22 -325 24
-134 60 -250 127 -403 44 -99 45 -104 27 -117 -25 -18 -122 -45 -164 -45 l-33
0 7 47 6 47 -25 -24 c-13 -13 -27 -32 -31 -43 -5 -16 -12 -18 -43 -13 -20 3
-42 14 -49 23 -13 18 -12 68 4 108 7 19 7 20 -13 2 -12 -10 -27 -32 -33 -48
-16 -37 -26 -37 -50 4 -26 41 -25 90 1 144 12 24 19 46 16 49 -2 3 -18 -7 -35
-21 -16 -14 -32 -25 -35 -25 -2 0 -15 24 -28 53 -18 40 -24 75 -27 158 -4 93
-1 112 18 158 27 61 81 111 163 149 43 20 59 33 62 52 8 40 65 213 86 260 l19
42 115 -111 c64 -61 145 -131 181 -157z m582 5 c23 -23 42 -48 42 -55 0 -19
-34 -31 -90 -34 -81 -5 -90 -2 -90 24 0 25 64 106 84 106 6 0 30 -19 54 -41z"/>
        <path class="rotate-anim" d="M1578 3484 c-15 -8 -32 -23 -38 -34 -26 -48 -3 -411 28 -442 5 -5 64
47 133 114 68 68 146 139 171 158 26 19 47 42 48 50 0 16 -202 141 -259 159
-43 14 -50 14 -83 -5z"/>
        <path class="rotate-anim" d="M3344 3487 c-43 -16 -255 -149 -252 -157 2 -4 37 -35 78 -70 41 -35
119 -108 172 -164 54 -55 101 -96 105 -92 22 22 35 105 40 254 6 180 1 202
-49 228 -32 17 -52 17 -94 1z"/>
        <path class="rotate-anim" d="M1993 2669 c-39 -11 -93 -64 -93 -90 0 -23 22 -24 55 -3 19 12 42 15
89 12 63 -4 72 -8 163 -74 21 -15 23 -15 29 0 16 43 -34 117 -101 147 -43 20
-91 23 -142 8z"/>
        <path class="rotate-anim" d="M2891 2658 c-50 -14 -89 -47 -112 -96 -16 -33 -19 -46 -10 -55 9 -9
16 -9 29 1 106 74 181 90 252 53 67 -35 82 -6 27 52 -47 50 -113 66 -186 45z"/>
        <path class="rotate-anim" d="M2353 2348 c-30 -15 -37 -41 -20 -75 20 -38 44 -59 100 -83 52 -23
54 -28 32 -70 -22 -42 -53 -60 -105 -60 -54 0 -80 22 -100 83 -8 25 -18 37
-30 37 -24 0 -31 -22 -20 -62 16 -55 33 -79 70 -98 29 -15 39 -28 53 -72 49
-157 190 -206 289 -101 27 28 68 112 68 139 0 7 14 21 32 30 42 22 64 50 77
98 11 46 6 66 -20 66 -13 0 -22 -12 -30 -41 -16 -53 -50 -79 -103 -79 -48 0
-80 19 -101 60 -23 44 -19 57 21 70 50 17 104 73 104 110 0 50 -27 60 -170 59
-69 0 -135 -5 -147 -11z"/>
    </g>

    <style>
        .line-anim1{ animation: moveline 1.5s infinite;opacity: 0; }
        .line-anim2{ animation: moveline 1.5s infinite;opacity: 0; }
        .line-anim3{ animation: moveline 1.5s infinite;opacity: 0; }
        .line-anim4{ animation: moveline 1.5s infinite;opacity: 0; }
        .line-anim5{ animation: moveline 1.5s infinite;opacity: 0; }
        @keyframes moveline {
        0% {
        transform: translateX(0px);
        opacity: 0;
        }
        25% {
        opacity: 1;
        }
        50%{
        transform: translateX(70px);
        opacity: 0;
        }
        75%{
        opacity: 0;
        }
        100% {
        transform: translateX(0px);
        opacity: 0;
        }
        }
        .rotate-anim{ animation: rotateitem 1.5s infinite; }
        @keyframes rotateitem {
        0% {
        fill: #FBD300;
        transform: rotate(0deg);
        }
        50%{
       fill: #FBD300;
        transform: translate(180deg);
        }
        100% {
        fill: #FBD300;
        transform: rotate(360deg);
        }
        }
    </style>
</svg>
